<?xml version="1.0" encoding="utf-8"?><svg xmlns="http://www.w3.org/2000/svg" xmlns:xlink="http://www.w3.org/1999/xlink" width="2048" height="1054" preserveAspectRatio="xMidYMid" viewBox="0 0 2048 1054" style="z-index:1;margin-right:-2px;display:block;background-repeat-y:initial;background-repeat-x:initial;background-color:rgb(241, 242, 243);animation-play-state:paused" ><g transform="translate(1024,527) scale(1,1) translate(-1024,-527)" style="transform:matrix(1, 0, 0, 1, 0, 0);animation-play-state:paused" ><linearGradient id="lg-0.8923675820667696" x1="0" x2="1" y1="0" y2="0" style="animation-play-state:paused" ><stop stop-color="#337ab7" offset="0" style="animation-play-state:paused" ></stop>

  
<stop stop-color="#5bc0de" offset="1" style="animation-play-state:paused" ></stop></linearGradient>
<path d="M 0 0 M 0 887.855 Q 341.333 930.191 682.667 921.24 T 1365.33 761.452 T 2048 785.201 L 2048 287.803 Q 1706.67 182.296 1365.33 178.639 T 682.667 231.075 T 0 163.16 Z" fill="url(#lg-0.8923675820667696)" opacity="0.4" style="opacity:0.4;animation-play-state:paused" ></path>
<path d="M 0 0 M 0 951.203 Q 341.333 832.325 682.667 828.921 T 1365.33 877.186 T 2048 813.401 L 2048 310.062 Q 1706.67 244.327 1365.33 240.873 T 682.667 215.308 T 0 68.0293 Z" fill="url(#lg-0.8923675820667696)" opacity="0.4" style="opacity:0.4;animation-play-state:paused" ></path>
<path d="M 0 0 M 0 979.496 Q 341.333 929.459 682.667 922.317 T 1365.33 809.79 T 2048 784.211 L 2048 323.16 Q 1706.67 212.199 1365.33 205.561 T 682.667 113.964 T 0 85.6471 Z" fill="url(#lg-0.8923675820667696)" opacity="0.4" style="opacity:0.4;animation-play-state:paused" ></path></g></svg>